HIERARCHY
ROOT Hips
{
	OFFSET 0.000000 0.000000 0.000000
	CHANNELS 6 Xposition Yposition Zposition Yrotation Xrotation Zrotation
	JOINT Spine
	{
		OFFSET 0.000000 1.133508 0.000001
		CHANNELS 6 Xposition Yposition Zposition Yrotation Xrotation Zrotation
		JOINT Spine1
		{
			OFFSET 0.000000 2.564898 0.000002
			CHANNELS 6 Xposition Yposition Zposition Yrotation Xrotation Zrotation
			JOINT Neck
			{
				OFFSET 0.000000 2.841363 0.000002
				CHANNELS 6 Xposition Yposition Zposition Yrotation Xrotation Zrotation
				JOINT Head
				{
					OFFSET 0.000000 2.142607 0.276467
					CHANNELS 6 Xposition Yposition Zposition Yrotation Xrotation Zrotation
					End Site
					{
						OFFSET 0.000000 2.764654 0.000002
					}
				}
			}
			JOINT LeftShoulder
			{
				OFFSET 0.551778 2.318355 -0.060299
				CHANNELS 6 Xposition Yposition Zposition Yrotation Xrotation Zrotation
				JOINT LeftArm
				{
					OFFSET 1.599219 0.000000 0.000000
					CHANNELS 6 Xposition Yposition Zposition Yrotation Xrotation Zrotation
					JOINT LeftForeArm
					{
						OFFSET 4.147210 0.000000 0.000000
						CHANNELS 6 Xposition Yposition Zposition Yrotation Xrotation Zrotation
						JOINT LeftHand
						{
							OFFSET 3.709151 0.000000 0.000000
							CHANNELS 6 Xposition Yposition Zposition Yrotation Xrotation Zrotation
							End Site
							{
								OFFSET 2.073491 0.000000 0.000000
							}
						}
					}
				}
			}
			JOINT RightShoulder
			{
				OFFSET -0.552905 2.318355 -0.060299
				CHANNELS 6 Xposition Yposition Zposition Yrotation Xrotation Zrotation
				JOINT RightArm
				{
					OFFSET -1.599219 0.000000 0.000000
					CHANNELS 6 Xposition Yposition Zposition Yrotation Xrotation Zrotation
					JOINT RightForeArm
					{
						OFFSET -4.147210 0.000000 0.000000
						CHANNELS 6 Xposition Yposition Zposition Yrotation Xrotation Zrotation
						JOINT RightHand
						{
							OFFSET -3.709151 0.000000 0.000000
							CHANNELS 6 Xposition Yposition Zposition Yrotation Xrotation Zrotation
							End Site
							{
								OFFSET -2.073491 0.000000 0.000000
							}
						}
					}
				}
			}
		}
	}
	JOINT LeftUpLeg
	{
		OFFSET 1.382327 0.000000 0.000000
		CHANNELS 6 Xposition Yposition Zposition Yrotation Xrotation Zrotation
		JOINT LeftLeg
		{
			OFFSET 0.000000 -7.194597 -0.000005
			CHANNELS 6 Xposition Yposition Zposition Yrotation Xrotation Zrotation
			JOINT LeftFoot
			{
				OFFSET 0.000000 -5.779614 -0.000004
				CHANNELS 6 Xposition Yposition Zposition Yrotation Xrotation Zrotation
				JOINT LeftToeBase
				{
					OFFSET 0.000000 -0.898512 2.073490
					CHANNELS 6 Xposition Yposition Zposition Yrotation Xrotation Zrotation
					End Site
					{
						OFFSET 0.000000 0.000000 0.552931
					}
				}
			}
		}
	}
	JOINT RightUpLeg
	{
		OFFSET -1.382327 0.000000 0.000000
		CHANNELS 6 Xposition Yposition Zposition Yrotation Xrotation Zrotation
		JOINT RightLeg
		{
			OFFSET 0.000000 -7.194597 -0.000005
			CHANNELS 6 Xposition Yposition Zposition Yrotation Xrotation Zrotation
			JOINT RightFoot
			{
				OFFSET 0.000000 -5.779614 -0.000004
				CHANNELS 6 Xposition Yposition Zposition Yrotation Xrotation Zrotation
				JOINT RightToeBase
				{
					OFFSET 0.000000 -0.898512 2.073490
					CHANNELS 6 Xposition Yposition Zposition Yrotation Xrotation Zrotation
					End Site
					{
						OFFSET 0.000000 0.000000 0.552931
					}
				}
			}
		}
	}
}
MOTION
Frames: 8
Frame Time: 0.041667
-0.472213 11.862966 -1.855089 -0.656174 9.003614 2.752364 -0.000000 1.133508 -0.000000 2.326506 7.636759 -4.107575 -0.000000 2.564899 0.000002 0.856178 4.005367 0.316733 -0.000000 2.841361 0.000002 20.866595 11.997261 22.764544 -0.000001 2.142615 0.276464 21.754453 13.804194 -22.456415 0.551778 2.318354 -0.060299 -10.579524 -2.056144 2.811872 1.599221 0.000004 0.000002 -12.806371 23.457479 -23.655237 4.147209 0.000000 -0.000000 -6.859250 -12.593691 17.383323 3.709154 -0.000000 -0.000002 0.494272 -13.785910 38.874541 -0.552905 2.318353 -0.060299 6.360645 -0.146139 -9.125198 -1.599218 -0.000002 0.000003 82.254336 54.587650 52.407557 -4.147213 0.000002 -0.000001 -117.565587 -215.763217 136.502328 -3.709151 0.000001 -0.000001 179.953532 -190.006082 -231.644964 1.382327 0.000003 -0.000001 -12.610203 -11.430859 30.812978 -0.000001 -7.194596 -0.000005 32.646644 24.070017 -13.036783 -0.000002 -5.779611 -0.000004 19.369158 -3.689725 -9.244500 -0.000001 -0.898512 2.073490 -0.000000 -0.000004 -0.000000 -1.382327 -0.000000 -0.000001 1.852549 -21.558150 -34.379313 0.000002 -7.194597 -0.000005 -3.832124 34.506823 30.736367 0.000003 -5.779616 -0.000004 -32.263952 -21.279485 5.590937 -0.000000 -0.898514 2.073490 0.000002 -0.000000 0.000003 
-0.487479 11.850070 -1.861468 -0.623082 9.060859 2.865234 0.000000 1.133509 0.000001 2.262514 7.565391 -4.114700 -0.000000 2.564900 0.000002 0.831051 3.942421 0.225808 -0.000000 2.841364 0.000002 21.026186 12.007514 22.842753 -0.000001 2.142611 0.276469 21.896089 13.877516 -22.581970 0.551777 2.318358 -0.060299 -10.778295 -2.208152 2.907031 1.599220 0.000003 0.000001 -11.321736 21.592026 -22.258280 4.147209 -0.000001 -0.000000 -5.541627 -9.682568 13.127285 3.709153 0.000002 -0.000003 1.141722 -10.698622 38.083748 -0.552905 2.318355 -0.060299 6.422700 -0.120938 -9.135982 -1.599217 -0.000003 0.000002 81.649236 54.875714 51.954032 -4.147207 -0.000000 0.000001 -117.030633 -215.730555 137.097989 -3.709147 -0.000003 0.000000 180.368111 -190.298141 -231.395608 1.382327 0.000001 0.000000 -12.749074 -11.483602 30.895189 -0.000002 -7.194593 -0.000004 32.720001 24.194487 -13.138885 -0.000000 -5.779613 -0.000004 19.373183 -3.688502 -9.261916 -0.000001 -0.898512 2.073490 0.000007 0.000000 -0.000004 -1.382327 -0.000001 0.000000 1.994926 -21.819149 -34.649249 0.000000 -7.194595 -0.000005 -3.398971 34.913243 31.223923 0.000001 -5.779617 -0.000004 -32.430093 -21.440117 5.653745 -0.000000 -0.898512 2.073491 0.000009 0.000001 -0.000003 
-0.506974 11.836063 -1.863755 -0.510364 9.028063 2.934102 -0.000000 1.133508 0.000002 2.110874 7.469625 -4.111637 -0.000000 2.564895 0.000002 0.778618 3.943717 0.195266 -0.000000 2.841363 0.000002 21.204169 12.032040 22.943469 -0.000000 2.142609 0.276468 22.060135 13.898118 -22.743444 0.551778 2.318355 -0.060298 -10.968363 -2.314494 3.054484 1.599220 0.000002 0.000001 -9.485687 18.858359 -20.724780 4.147211 -0.000003 0.000000 -4.698961 -6.184188 8.768396 3.709153 0.000007 -0.000002 2.051148 -7.226994 37.155136 -0.552905 2.318357 -0.060299 6.539034 -0.137660 -9.137537 -1.599217 -0.000003 -0.000000 81.012122 55.023775 51.485153 -4.147212 0.000001 0.000000 -116.834457 -215.826027 137.563630 -3.709151 0.000001 0.000000 179.895749 -190.423516 -231.682803 1.382328 0.000001 0.000002 -12.946045 -11.438445 31.041345 -0.000003 -7.194596 -0.000004 32.746792 24.327536 -13.283995 -0.000002 -5.779614 -0.000004 19.393825 -3.698748 -9.295716 0.000001 -0.898512 2.073491 0.000003 0.000000 -0.000003 -1.382327 -0.000002 0.000002 2.005707 -21.955155 -34.836922 0.000000 -7.194595 -0.000005 -2.739071 35.231386 31.785662 0.000002 -5.779618 -0.000004 -32.572209 -21.650409 5.783431 -0.000000 -0.898512 2.073489 -0.000003 -0.000002 0.000002 
-0.525872 11.821943 -1.867164 -0.414890 9.035167 2.995654 -0.000000 1.133509 0.000001 1.953172 7.367880 -4.096349 0.000000 2.564896 0.000003 0.724624 3.890769 0.197216 -0.000000 2.841362 0.000001 21.389902 12.048700 23.061377 0.000001 2.142608 0.276465 22.229144 13.945455 -22.923337 0.551778 2.318353 -0.060300 -11.143201 -2.329757 3.217459 1.599220 -0.000001 -0.000000 -8.655680 17.404980 -19.871134 4.147210 0.000002 -0.000001 -3.499359 -3.746527 5.294283 3.709152 0.000004 -0.000004 2.510273 -4.718420 35.873168 -0.552905 2.318352 -0.060300 6.590145 -0.114217 -9.169476 -1.599219 -0.000003 0.000001 80.489702 55.162544 51.029870 -4.147211 -0.000001 -0.000007 -116.528642 -215.774897 138.018042 -3.709149 -0.000000 0.000001 179.820371 -190.491408 -231.706408 1.382327 0.000000 -0.000000 -12.905739 -11.595319 31.150338 -0.000002 -7.194598 -0.000004 32.539113 24.506522 -13.373080 -0.000002 -5.779618 -0.000004 19.372052 -3.711725 -9.337514 -0.000000 -0.898512 2.073490 0.000004 -0.000002 -0.000006 -1.382327 0.000001 -0.000000 1.973293 -22.157991 -34.994440 0.000001 -7.194592 -0.000004 -2.064589 35.435534 32.483919 0.000000 -5.779618 -0.000004 -33.095255 -21.905588 5.671037 -0.000000 -0.898512 2.073490 0.000007 -0.000001 0.000003 
-0.544009 11.807478 -1.869815 -0.321081 9.017346 3.088658 0.000000 1.133515 0.000000 1.759931 7.270729 -4.023640 -0.000000 2.564902 0.000000 0.659510 3.881034 0.242487 -0.000000 2.841368 0.000001 21.572036 12.085342 23.130977 0.000003 2.142611 0.276466 22.396885 13.943017 -23.077338 0.551778 2.318352 -0.060298 -11.258275 -2.459331 3.388140 1.599221 0.000006 0.000001 -8.921686 17.795197 -19.727249 4.147211 0.000002 0.000000 -1.863519 -2.272707 2.726102 3.709152 -0.000001 -0.000003 2.668173 -3.143421 34.448428 -0.552905 2.318355 -0.060298 6.731804 -0.126237 -9.209354 -1.599218 0.000002 0.000002 79.908705 55.330481 50.607313 -4.147211 -0.000001 -0.000000 -115.895838 -215.573474 138.623853 -3.709147 0.000003 -0.000001 180.439200 -190.641672 -231.222285 1.382327 0.000004 -0.000000 -13.078958 -11.568930 31.262554 -0.000000 -7.194594 -0.000004 32.553221 24.631776 -13.515898 -0.000001 -5.779618 -0.000003 19.397333 -3.734885 -9.351133 -0.000002 -0.898512 2.073488 -0.000009 0.000002 0.000001 -1.382327 0.000005 -0.000000 2.030547 -22.316255 -35.241724 -0.000000 -7.194599 -0.000005 -1.218703 35.641071 33.271446 0.000003 -5.779614 -0.000004 -33.579136 -22.088895 5.733934 0.000001 -0.898512 2.073490 -0.000001 0.000004 0.000001 
-0.560170 11.791440 -1.872255 -0.199862 9.034418 3.185295 0.000000 1.133508 0.000000 1.550700 7.187616 -3.984862 -0.000000 2.564901 0.000002 0.588231 3.825682 0.246639 -0.000001 2.841362 0.000002 21.741679 12.129298 23.269739 -0.000002 2.142607 0.276470 22.545503 13.971426 -23.295632 0.551778 2.318356 -0.060300 -11.348651 -2.589742 3.636451 1.599219 0.000008 0.000001 -9.729002 18.974465 -20.181655 4.147212 -0.000004 0.000005 -0.168571 -1.067296 0.923680 3.709153 0.000005 -0.000000 2.501644 -1.819238 33.404700 -0.552905 2.318351 -0.060299 6.860766 -0.125217 -9.207182 -1.599220 -0.000002 0.000000 79.630211 55.492961 50.417861 -4.147209 0.000001 -0.000007 -116.008004 -215.562847 138.666391 -3.709152 0.000000 0.000000 180.291941 -190.653024 -231.417683 1.382327 -0.000001 -0.000000 -13.277182 -11.592752 31.381762 -0.000001 -7.194594 -0.000004 32.527229 24.778422 -13.669438 -0.000000 -5.779613 -0.000005 19.439065 -3.829547 -9.350267 -0.000002 -0.898512 2.073491 -0.000002 0.000007 0.000000 -1.382327 0.000001 -0.000001 2.040577 -22.508407 -35.501295 0.000001 -7.194596 -0.000005 -0.442301 35.856403 34.039491 0.000003 -5.779618 -0.000003 -33.976482 -22.285003 5.762798 -0.000000 -0.898512 2.073490 0.000003 -0.000001 0.000000 
-0.580129 11.777502 -1.875474 -0.139277 9.051277 3.212932 0.000000 1.133511 0.000000 1.381489 7.053360 -3.905297 0.000000 2.564895 0.000002 0.533937 3.695005 0.403916 -0.000001 2.841361 0.000002 21.908773 12.191317 23.381771 0.000002 2.142614 0.276466 22.678484 14.046662 -23.510650 0.551778 2.318352 -0.060299 -11.362634 -2.627190 3.830709 1.599220 0.000007 0.000001 -10.920422 20.752222 -21.058641 4.147211 0.000005 0.000003 1.075174 -0.584361 -0.200504 3.709149 -0.000001 0.000000 2.140560 -1.191743 31.590841 -0.552905 2.318356 -0.060300 6.939033 -0.044117 -9.261608 -1.599218 0.000002 0.000001 79.354108 55.588482 50.150838 -4.147211 0.000001 -0.000006 -116.209754 -215.550238 138.643059 -3.709153 -0.000002 0.000000 180.061408 -190.621578 -231.601388 1.382327 0.000002 0.000000 -13.410133 -11.597509 31.572143 -0.000001 -7.194596 -0.000004 32.544277 24.917374 -13.804181 -0.000000 -5.779618 -0.000004 19.431936 -3.844262 -9.381806 0.000000 -0.898512 2.073490 0.000005 -0.000000 -0.000002 -1.382327 0.000003 0.000000 2.117966 -22.692243 -35.634193 0.000000 -7.194597 -0.000004 0.105208 36.140788 34.595977 0.000003 -5.779620 -0.000003 -34.235377 -22.467602 5.786694 -0.000000 -0.898512 2.073489 -0.000006 0.000002 -0.000002 
-0.599864 11.764048 -1.877078 -0.086659 9.036462 3.214445 0.000000 1.133511 -0.000001 1.231719 6.934001 -3.883595 0.000000 2.564895 0.000001 0.486442 3.628639 0.534279 -0.000000 2.841365 0.000001 22.032099 12.264079 23.459640 -0.000000 2.142606 0.276471 22.774709 14.065049 -23.723561 0.551778 2.318356 -0.060300 -11.285925 -2.562206 4.041179 1.599220 0.000001 0.000001 -12.715897 23.078589 -22.528489 4.147211 -0.000001 -0.000001 2.118546 -1.079396 -0.533790 3.709152 -0.000000 0.000001 1.624927 -1.523425 29.918121 -0.552905 2.318357 -0.060299 7.033251 -0.045845 -9.283719 -1.599218 -0.000002 0.000003 78.979998 55.790853 49.945123 -4.147211 -0.000001 0.000001 -115.432205 -215.215982 139.105327 -3.709148 0.000002 0.000001 181.159867 -190.651644 -230.767613 1.382327 0.000002 -0.000001 -13.458235 -11.622967 31.747976 -0.000003 -7.194596 -0.000004 32.493013 25.085138 -13.882821 -0.000001 -5.779616 -0.000004 19.388781 -3.891573 -9.436734 -0.000000 -0.898512 2.073491 0.000007 -0.000000 -0.000002 -1.382327 0.000003 -0.000002 2.227150 -22.768717 -35.757318 0.000000 -7.194598 -0.000005 0.664621 36.292296 35.228295 0.000001 -5.779613 -0.000004 -34.606099 -22.664091 5.750351 -0.000000 -0.898512 2.073491 0.000002 0.000000 0.000003 
